# xmcd
#
# Track frame offsets:
#	150
#	14243
#	39068
#	67177
#	85402
#	99802
#	116422
#	147849
#
# Disc length: 2164 seconds
#
# Revision: 0
# Processed by: cddbd v1.4PL0 Copyright (c) Steve Scherf et al.
# Submitted via: dBpowerAMP V4.0
#
DISCID=64087208
DTITLE=_channel_ - The Violence Quotient
DYEAR=1900
DGENRE=
TTITLE0=Zhang
TTITLE1=Head Held High
TTITLE2=Slate Grey
TTITLE3=Cold Metal Dream
TTITLE4=Smoke and Mirrors
TTITLE5=Neglect
TTITLE6=Family
TTITLE7=DATA
EXTD=
EXTT0=
EXTT1=
EXTT2=
EXTT3=
EXTT4=
EXTT5=
EXTT6=
EXTT7=
PLAYORDER=
